<mxfile host="app.diagrams.net" agent="Mozilla/5.0 (Windows NT 10.0; Win64; x64) AppleWebKit/537.36 (KHTML, like Gecko) Chrome/141.0.0.0 Safari/537.36" version="28.2.8">
  <diagram name="Página-1" id="3zWHdGytA9lpw7oD6TOk">
    <mxGraphModel dx="727" dy="366" grid="1" gridSize="10" guides="1" tooltips="1" connect="1" arrows="1" fold="1" page="1" pageScale="1" pageWidth="827" pageHeight="1169" math="0" shadow="0">
      <root>
        <mxCell id="0" />
        <mxCell id="1" parent="0" />
        <mxCell id="0U7CYQTiaOT7S-Qo_TY8-22" value="" style="edgeStyle=orthogonalEdgeStyle;rounded=0;orthogonalLoop=1;jettySize=auto;html=1;" edge="1" parent="1" source="0U7CYQTiaOT7S-Qo_TY8-9" target="0U7CYQTiaOT7S-Qo_TY8-21">
          <mxGeometry relative="1" as="geometry" />
        </mxCell>
        <mxCell id="0U7CYQTiaOT7S-Qo_TY8-23" value="Sim" style="edgeLabel;html=1;align=center;verticalAlign=middle;resizable=0;points=[];fontSize=8;" vertex="1" connectable="0" parent="0U7CYQTiaOT7S-Qo_TY8-22">
          <mxGeometry x="0.0391" y="-1" relative="1" as="geometry">
            <mxPoint as="offset" />
          </mxGeometry>
        </mxCell>
        <mxCell id="0U7CYQTiaOT7S-Qo_TY8-32" value="" style="edgeStyle=orthogonalEdgeStyle;rounded=0;orthogonalLoop=1;jettySize=auto;html=1;" edge="1" parent="1" source="0U7CYQTiaOT7S-Qo_TY8-9" target="0U7CYQTiaOT7S-Qo_TY8-31">
          <mxGeometry relative="1" as="geometry" />
        </mxCell>
        <mxCell id="0U7CYQTiaOT7S-Qo_TY8-33" value="Não" style="edgeLabel;html=1;align=center;verticalAlign=middle;resizable=0;points=[];fontSize=8;" vertex="1" connectable="0" parent="0U7CYQTiaOT7S-Qo_TY8-32">
          <mxGeometry x="-0.5" y="2" relative="1" as="geometry">
            <mxPoint as="offset" />
          </mxGeometry>
        </mxCell>
        <mxCell id="0U7CYQTiaOT7S-Qo_TY8-9" value="&lt;font style=&quot;font-size: 8px;&quot;&gt;Descrições são semelhantes?&lt;/font&gt;" style="rhombus;whiteSpace=wrap;html=1;convertToSvg=0;" vertex="1" parent="1">
          <mxGeometry x="205" y="140" width="84" height="84" as="geometry" />
        </mxCell>
        <mxCell id="0U7CYQTiaOT7S-Qo_TY8-15" style="edgeStyle=orthogonalEdgeStyle;rounded=0;orthogonalLoop=1;jettySize=auto;html=1;exitX=0.5;exitY=1;exitDx=0;exitDy=0;entryX=0.5;entryY=0;entryDx=0;entryDy=0;fontSize=8;" edge="1" parent="1" source="0U7CYQTiaOT7S-Qo_TY8-12" target="0U7CYQTiaOT7S-Qo_TY8-9">
          <mxGeometry relative="1" as="geometry">
            <mxPoint x="247" y="145" as="targetPoint" />
          </mxGeometry>
        </mxCell>
        <mxCell id="0U7CYQTiaOT7S-Qo_TY8-16" value="Sim" style="edgeLabel;html=1;align=center;verticalAlign=middle;resizable=0;points=[];fontSize=8;" vertex="1" connectable="0" parent="0U7CYQTiaOT7S-Qo_TY8-15">
          <mxGeometry x="-0.125" relative="1" as="geometry">
            <mxPoint as="offset" />
          </mxGeometry>
        </mxCell>
        <mxCell id="0U7CYQTiaOT7S-Qo_TY8-26" value="" style="edgeStyle=orthogonalEdgeStyle;rounded=0;orthogonalLoop=1;jettySize=auto;html=1;" edge="1" parent="1" source="0U7CYQTiaOT7S-Qo_TY8-12" target="0U7CYQTiaOT7S-Qo_TY8-25">
          <mxGeometry relative="1" as="geometry" />
        </mxCell>
        <mxCell id="0U7CYQTiaOT7S-Qo_TY8-29" value="Não" style="edgeLabel;html=1;align=center;verticalAlign=middle;resizable=0;points=[];fontSize=8;" vertex="1" connectable="0" parent="0U7CYQTiaOT7S-Qo_TY8-26">
          <mxGeometry x="-0.5537" y="3" relative="1" as="geometry">
            <mxPoint as="offset" />
          </mxGeometry>
        </mxCell>
        <mxCell id="0U7CYQTiaOT7S-Qo_TY8-12" value="&lt;span style=&quot;font-size: 8px;&quot;&gt;Existe Corresp de valor?&lt;/span&gt;" style="rhombus;whiteSpace=wrap;html=1;convertToSvg=0;" vertex="1" parent="1">
          <mxGeometry x="205" y="20" width="84" height="84" as="geometry" />
        </mxCell>
        <mxCell id="0U7CYQTiaOT7S-Qo_TY8-21" value="Corresponde" style="whiteSpace=wrap;html=1;fontSize=8;" vertex="1" parent="1">
          <mxGeometry x="200" y="261.83" width="94" height="47" as="geometry" />
        </mxCell>
        <mxCell id="0U7CYQTiaOT7S-Qo_TY8-40" style="edgeStyle=orthogonalEdgeStyle;rounded=0;orthogonalLoop=1;jettySize=auto;html=1;exitX=0.5;exitY=1;exitDx=0;exitDy=0;entryX=0;entryY=0.5;entryDx=0;entryDy=0;" edge="1" parent="1" source="0U7CYQTiaOT7S-Qo_TY8-25" target="0U7CYQTiaOT7S-Qo_TY8-38">
          <mxGeometry relative="1" as="geometry" />
        </mxCell>
        <mxCell id="0U7CYQTiaOT7S-Qo_TY8-25" value="Excluir" style="whiteSpace=wrap;html=1;fontSize=8;" vertex="1" parent="1">
          <mxGeometry x="430" y="264.83" width="88" height="44" as="geometry" />
        </mxCell>
        <mxCell id="0U7CYQTiaOT7S-Qo_TY8-39" style="edgeStyle=orthogonalEdgeStyle;rounded=0;orthogonalLoop=1;jettySize=auto;html=1;exitX=0.5;exitY=1;exitDx=0;exitDy=0;entryX=0;entryY=0.5;entryDx=0;entryDy=0;" edge="1" parent="1" source="0U7CYQTiaOT7S-Qo_TY8-31" target="0U7CYQTiaOT7S-Qo_TY8-38">
          <mxGeometry relative="1" as="geometry" />
        </mxCell>
        <mxCell id="0U7CYQTiaOT7S-Qo_TY8-31" value="&lt;font style=&quot;font-size: 8px;&quot;&gt;Verificar&lt;/font&gt;" style="whiteSpace=wrap;html=1;" vertex="1" parent="1">
          <mxGeometry x="320" y="263.83" width="90" height="45" as="geometry" />
        </mxCell>
        <mxCell id="0U7CYQTiaOT7S-Qo_TY8-35" value="" style="edgeStyle=orthogonalEdgeStyle;rounded=0;orthogonalLoop=1;jettySize=auto;html=1;" edge="1" parent="1" source="0U7CYQTiaOT7S-Qo_TY8-34" target="0U7CYQTiaOT7S-Qo_TY8-12">
          <mxGeometry relative="1" as="geometry" />
        </mxCell>
        <mxCell id="0U7CYQTiaOT7S-Qo_TY8-34" value="Despesa&lt;div&gt;App Gestão Financeira&lt;/div&gt;" style="ellipse;whiteSpace=wrap;html=1;fontSize=8;" vertex="1" parent="1">
          <mxGeometry x="80" y="32" width="90" height="60" as="geometry" />
        </mxCell>
        <mxCell id="0U7CYQTiaOT7S-Qo_TY8-46" value="" style="edgeStyle=orthogonalEdgeStyle;rounded=0;orthogonalLoop=1;jettySize=auto;html=1;" edge="1" parent="1" source="0U7CYQTiaOT7S-Qo_TY8-36" target="0U7CYQTiaOT7S-Qo_TY8-44">
          <mxGeometry relative="1" as="geometry" />
        </mxCell>
        <mxCell id="0U7CYQTiaOT7S-Qo_TY8-36" value="&lt;div style=&quot;&quot;&gt;&lt;span style=&quot;background-color: transparent; color: light-dark(rgb(0, 0, 0), rgb(255, 255, 255));&quot;&gt;Despesas que não existem&lt;/span&gt;&lt;/div&gt;&lt;div style=&quot;&quot;&gt;no Relatório do App Gestão Financeira&lt;/div&gt;" style="ellipse;whiteSpace=wrap;html=1;fontSize=8;align=center;" vertex="1" parent="1">
          <mxGeometry x="60" y="319.83" width="110" height="73.33" as="geometry" />
        </mxCell>
        <mxCell id="0U7CYQTiaOT7S-Qo_TY8-38" value="Relatório Final" style="rounded=1;whiteSpace=wrap;html=1;fontSize=8;" vertex="1" parent="1">
          <mxGeometry x="550" y="331.5" width="100" height="50" as="geometry" />
        </mxCell>
        <mxCell id="0U7CYQTiaOT7S-Qo_TY8-47" style="edgeStyle=orthogonalEdgeStyle;rounded=0;orthogonalLoop=1;jettySize=auto;html=1;exitX=1;exitY=0.5;exitDx=0;exitDy=0;entryX=0;entryY=0.5;entryDx=0;entryDy=0;" edge="1" parent="1" source="0U7CYQTiaOT7S-Qo_TY8-44" target="0U7CYQTiaOT7S-Qo_TY8-38">
          <mxGeometry relative="1" as="geometry" />
        </mxCell>
        <mxCell id="0U7CYQTiaOT7S-Qo_TY8-44" value="Adicionar" style="whiteSpace=wrap;html=1;fontSize=8;" vertex="1" parent="1">
          <mxGeometry x="200" y="333" width="94" height="47" as="geometry" />
        </mxCell>
      </root>
    </mxGraphModel>
  </diagram>
</mxfile>
